<?xml version="1.0" standalone="no"?>
<!DOCTYPE svg PUBLIC "-//W3C//DTD SVG 20010904//EN"
 "http://www.w3.org/TR/2001/REC-SVG-20010904/DTD/svg10.dtd">
<svg version="1.0" xmlns="http://www.w3.org/2000/svg"
 width="300.000000pt" height="300.000000pt" viewBox="0 0 300.000000 300.000000"
 preserveAspectRatio="xMidYMid meet">
<metadata>
Created by potrace 1.10, written by Peter Selinger 2001-2011
</metadata>
<g transform="translate(0.000000,300.000000) scale(0.100000,-0.100000)"
fill="#1ca7ca" stroke="none">
<path d="M1165 2445 c-5 -2 -22 -6 -37 -9 -36 -8 -93 -58 -106 -93 -6 -16 -13
-44 -16 -63 l-6 -35 -72 0 c-61 0 -79 -4 -107 -24 -40 -29 -70 -91 -71 -147
l0 -41 -48 -7 c-56 -7 -116 -45 -137 -86 -26 -50 -19 -122 16 -181 l32 -50
-24 -17 c-12 -9 -26 -19 -30 -22 -3 -3 -14 -19 -23 -37 -33 -64 -14 -142 48
-202 l35 -34 -29 -33 c-16 -19 -32 -50 -36 -69 -21 -114 44 -202 166 -221 l41
-7 -6 -49 c-6 -41 -3 -57 19 -101 32 -67 70 -89 161 -97 67 -5 70 -6 71 -31 3
-75 41 -137 104 -169 70 -36 145 -19 205 44 l32 34 124 3 123 2 20 -31 c44
-66 141 -90 213 -53 66 33 95 83 105 176 2 20 8 29 17 27 39 -8 112 -2 138 12
73 37 105 103 100 204 -2 33 -1 34 39 37 55 4 97 27 131 71 23 31 28 47 28
100 0 54 -4 68 -32 107 l-31 45 38 37 c73 71 77 170 9 239 -22 21 -39 40 -39
42 0 3 12 22 26 44 73 110 8 248 -124 266 l-52 7 1 41 c3 109 -70 179 -184
175 l-61 -3 -12 53 c-33 147 -210 195 -305 84 -24 -28 -25 -28 -150 -28 l-126
0 -41 37 c-22 20 -58 41 -79 47 -40 11 -42 12 -58 6z m82 -52 c41 -19 73 -66
73 -106 0 -98 -101 -173 -180 -133 -29 14 -34 14 -56 -2 -19 -14 -23 -26 -24
-70 0 -45 -4 -57 -34 -90 -33 -36 -37 -37 -105 -38 -39 0 -74 -3 -77 -7 -3 -3
-1 -28 6 -56 10 -43 9 -55 -5 -85 -18 -39 -62 -76 -89 -76 -25 0 -21 -56 3
-63 36 -9 63 -66 58 -121 -4 -42 -10 -55 -41 -83 -49 -45 -48 -73 4 -95 54
-22 82 -70 77 -127 -3 -27 -12 -50 -23 -58 -17 -12 -16 -14 7 -39 19 -21 30
-24 57 -19 47 9 96 -10 133 -52 29 -33 31 -41 27 -93 -4 -50 -1 -58 19 -74 20
-14 28 -15 63 -5 31 9 49 9 79 1 44 -14 91 -56 91 -83 0 -18 10 -19 129 -19
l129 0 4 -30 5 -30 -125 0 c-105 0 -123 2 -119 15 4 8 2 17 -2 20 -5 2 -12
-12 -16 -32 -4 -22 -20 -50 -40 -70 -29 -29 -39 -33 -85 -33 -94 0 -145 50
-145 142 0 74 -18 96 -66 79 -17 -6 -43 -11 -56 -11 -37 0 -96 35 -115 68 -21
35 -23 99 -6 137 10 22 9 27 -8 40 -10 8 -36 15 -57 15 -78 0 -140 47 -153
116 -9 51 3 84 47 126 50 48 50 70 0 90 -47 19 -74 64 -74 124 0 51 25 87 81
114 23 11 42 26 42 34 0 8 -16 23 -35 35 -61 36 -82 118 -45 178 27 45 73 66
131 61 38 -4 52 -1 65 13 9 10 25 21 35 24 11 4 19 11 19 16 0 5 -11 2 -24 -6
-21 -14 -24 -14 -30 0 -26 68 13 151 82 175 38 13 47 13 90 -2 43 -16 48 -16
65 -1 14 13 16 26 12 57 -15 105 99 178 202 129z m570 0 c51 -24 75 -67 70
-125 -3 -40 -1 -48 19 -58 17 -10 30 -10 55 -1 46 16 80 14 117 -9 58 -36 90
-117 62 -160 -14 -23 -66 11 -62 40 2 12 -4 32 -12 46 -33 50 -126 20 -126
-41 0 -29 32 -65 57 -65 9 0 28 -10 41 -22 l25 -23 -14 22 c-12 20 -11 25 3
39 15 15 20 14 64 -16 40 -28 57 -33 106 -34 55 -1 62 -4 94 -38 29 -32 34
-45 34 -85 0 -56 -28 -109 -64 -123 -32 -12 -24 -44 15 -60 49 -21 79 -65 79
-116 0 -25 -7 -58 -15 -74 -16 -30 -61 -60 -91 -60 -11 0 -14 -5 -10 -16 3 -9
6 -21 6 -28 0 -7 12 -18 26 -24 34 -16 68 -92 59 -135 -16 -75 -70 -117 -151
-117 -64 0 -81 -16 -65 -61 27 -77 0 -153 -63 -183 -42 -20 -95 -21 -121 -2
-18 12 -23 11 -45 -8 -22 -19 -25 -27 -22 -79 4 -56 3 -59 -36 -97 -26 -26
-50 -41 -68 -42 -112 -6 -164 39 -164 141 0 93 83 149 176 118 41 -13 44 -13
63 7 16 17 19 30 15 58 -17 104 85 191 182 155 28 -10 48 31 34 69 -15 38 -12
101 6 135 10 19 32 38 60 50 51 23 60 57 21 78 -35 19 -57 63 -57 117 0 42 4
51 40 85 44 42 53 79 19 79 -27 0 -86 59 -95 95 -4 16 -3 46 3 67 8 29 7 42
-4 58 -12 17 -18 19 -29 9 -22 -18 -101 -5 -131 22 -39 38 -56 77 -49 119 5
32 2 40 -18 54 -22 14 -28 14 -53 1 -53 -28 -108 -12 -157 45 -20 24 -26 42
-26 79 0 102 100 160 197 114z m-237 -108 l0 -36 -112 3 -113 3 -3 33 -3 32
115 0 116 0 0 -35z m-166 -90 c-10 -30 -14 -32 -26 -10 -11 19 -11 19 -19 0
-4 -11 -8 -56 -8 -101 -1 -75 -3 -82 -30 -108 -38 -37 -45 -23 -36 72 6 69 11
81 45 122 41 49 86 64 74 25z m156 15 c0 -5 16 -27 35 -49 33 -36 35 -44 41
-128 5 -60 3 -92 -4 -97 -6 -3 -13 2 -17 13 -3 10 -14 26 -25 36 -15 14 -20
32 -21 74 0 31 -4 76 -8 101 -6 43 -7 44 -20 21 -9 -16 -11 -43 -6 -92 7 -71
3 -78 -28 -55 -17 13 -17 17 -3 43 9 19 13 49 11 86 -3 55 -2 57 21 57 13 0
24 -4 24 -10z m-70 -65 c0 -60 -2 -64 -35 -57 -23 4 -25 9 -25 56 0 50 1 51
30 52 30 1 30 0 30 -51z m-366 -31 c14 -5 14 -8 1 -27 -8 -12 -15 -34 -15 -49
0 -14 -7 -34 -16 -43 -50 -49 -60 -125 -24 -175 16 -21 16 -27 3 -46 -11 -17
-11 -22 -1 -21 47 2 79 -5 84 -17 3 -8 -7 -33 -23 -57 -17 -26 -24 -44 -16
-46 8 -3 6 -13 -5 -36 -24 -50 -78 -131 -96 -146 -30 -25 -20 46 13 87 37 46
52 104 41 157 -4 22 -8 32 -9 23 0 -10 -7 -18 -14 -18 -29 0 -45 35 -51 110
-3 41 -8 84 -11 95 -4 15 4 26 35 44 40 25 64 69 74 136 2 17 5 31 5 33 1 3 8
2 25 -4z m124 -56 c-4 -21 -6 -19 -19 12 -14 32 -14 36 0 41 18 7 25 -15 19
-53z m447 30 c-13 -59 -24 -66 -25 -15 0 36 4 47 16 47 12 0 14 -7 9 -32z
m127 12 c-1 -7 4 -34 13 -61 15 -45 62 -99 97 -112 11 -4 11 -8 0 -26 -7 -12
-13 -55 -13 -97 -1 -74 -1 -76 -30 -86 -16 -5 -29 -13 -30 -16 -8 -83 -2 -110
46 -192 16 -28 20 -90 6 -90 -6 0 -16 11 -23 24 -7 14 -39 67 -70 119 -32 52
-58 101 -58 108 0 11 2 11 10 -1 5 -8 12 -12 15 -8 4 3 -1 18 -10 32 -23 35
-14 52 32 63 22 5 38 15 39 23 0 8 6 32 13 54 17 49 7 109 -24 151 -14 17 -25
43 -24 56 0 13 -3 37 -7 53 -5 22 -4 27 7 24 8 -3 13 -11 11 -18z m-407 -17
c17 -25 17 -27 -1 -40 -26 -19 -34 -16 -34 11 0 23 9 56 15 56 1 0 11 -12 20
-27z m613 4 c2 -9 -4 -20 -12 -23 -21 -8 -46 13 -39 32 8 20 47 13 51 -9z
m-828 -54 c0 -42 5 -57 25 -77 16 -16 25 -36 25 -56 0 -37 -23 -85 -45 -94
-99 -38 -170 80 -94 156 23 23 31 41 34 77 2 25 4 46 4 46 1 0 12 0 26 0 23 0
25 -3 25 -52z m570 2 c0 -46 3 -53 25 -63 49 -23 61 -107 20 -147 -34 -35 -88
-34 -120 1 -34 37 -34 96 0 130 20 20 25 35 25 78 0 50 1 54 25 54 23 0 25 -4
25 -53z m-267 -40 c18 -18 232 -364 367 -595 56 -96 107 -181 112 -187 8 -10
4 -13 -13 -13 -14 0 -42 -12 -62 -26 -21 -14 -41 -24 -43 -21 -2 2 -57 94
-122 203 -151 255 -275 454 -284 454 -3 0 -30 -37 -59 -82 -65 -102 -336 -553
-341 -570 -3 -7 -15 -4 -36 12 -17 13 -46 26 -65 29 l-35 6 217 360 c296 492
264 445 310 445 22 0 46 -7 54 -15z m-537 -126 c-3 -17 -6 -56 -6 -85 0 -51
-1 -54 -25 -54 -25 0 -25 1 -25 79 0 85 -2 81 54 90 5 0 6 -13 2 -30z m1044
-54 c0 -58 -3 -75 -14 -75 -8 0 -21 -3 -30 -6 -14 -5 -16 5 -16 75 l0 81 30 0
30 0 0 -75z m-254 -49 c1 0 -1 -18 -4 -38 l-4 -38 -18 23 c-9 12 -23 33 -29
45 -12 23 -12 24 21 17 18 -4 33 -8 34 -9z m368 -81 c-11 -28 -33 -23 -58 14
-25 35 -32 61 -21 73 10 9 84 -73 79 -87z m-1244 63 c-1 -13 -14 -38 -30 -57
-25 -29 -32 -32 -45 -21 -22 18 -19 29 18 65 38 39 57 43 57 13z m330 13 c0
-14 -18 -23 -30 -16 -6 4 -8 11 -5 16 8 12 35 12 35 0z m272 -49 c4 -13 -2
-17 -24 -17 -32 0 -32 0 -18 25 12 22 36 17 42 -8z m-483 -21 c36 -25 45 -62
27 -106 -9 -20 -25 -39 -36 -42 -18 -5 -20 -14 -20 -75 0 -72 1 -70 -60 -144
-11 -15 -3 -24 15 -18 9 4 7 -9 -8 -40 -11 -25 -22 -44 -24 -42 -3 2 -6 21 -9
42 -6 47 -25 79 -72 120 l-36 31 28 34 c15 18 32 43 37 56 21 56 46 3 35 -76
-7 -51 7 -106 24 -96 6 3 10 49 10 103 0 90 -2 99 -25 121 -44 41 -27 129 29
151 25 10 53 4 85 -19z m1038 -3 c33 -31 32 -100 -2 -134 -23 -22 -25 -32 -27
-136 l-3 -112 -27 42 c-24 35 -28 52 -28 111 0 61 -3 72 -21 81 -31 17 -51 73
-38 107 18 47 39 63 82 63 28 0 48 -7 64 -22z m-530 -59 c25 -38 26 -43 12
-67 -13 -24 -21 -27 -64 -27 -42 0 -51 4 -61 23 -15 30 -8 54 22 87 34 36 59
32 91 -16z m93 -115 c0 -14 -50 -20 -63 -8 -3 4 1 20 10 37 l16 31 18 -23 c11
-13 19 -29 19 -37z m-230 26 c14 -26 5 -40 -26 -40 -26 0 -30 11 -14 41 14 24
27 24 40 -1z m733 -73 l32 -57 -23 -16 c-12 -8 -33 -27 -46 -41 l-23 -25 -1
81 c0 89 6 123 20 119 5 -2 24 -29 41 -61z m-484 -27 c7 -17 28 -53 47 -80
l34 -50 -240 0 -241 0 12 23 c6 12 27 48 47 80 l35 57 146 0 146 0 14 -30z
m-353 -170 c21 2 65 2 97 1 l57 -1 -39 -39 c-41 -41 -53 -81 -39 -131 3 -14 9
-75 11 -137 l5 -111 -39 40 c-21 23 -37 44 -35 47 3 4 6 63 7 133 l3 127 -32
31 c-18 17 -46 33 -62 37 -33 6 -36 13 -18 31 10 10 16 8 29 -9 12 -16 25 -20
55 -19z m472 7 c2 -12 -3 -17 -18 -17 -12 0 -37 -15 -56 -34 l-34 -34 0 -136
c0 -122 -2 -136 -19 -145 -10 -6 -28 -26 -39 -45 -20 -33 -51 -43 -59 -19 -6
17 16 26 31 14 11 -9 15 20 25 155 l13 166 -29 31 c-15 17 -35 37 -43 44 -16
13 12 16 115 14 22 -1 51 6 65 14 30 17 44 15 48 -8z m292 -9 c0 -18 3 -49 6
-70 6 -34 5 -36 -20 -35 -23 2 -39 17 -17 17 20 0 20 35 2 71 -21 39 -20 41
22 48 4 0 7 -14 7 -31z m-811 -43 c52 -27 57 -91 10 -137 -26 -27 -30 -37 -27
-76 3 -43 2 -44 -28 -47 l-31 -2 5 48 c4 43 2 51 -21 69 -47 37 -40 106 15
144 28 20 41 20 77 1z m281 0 c54 -28 61 -116 10 -147 -18 -12 -20 -23 -20
-115 l0 -103 -30 0 -30 0 0 104 c0 81 -3 105 -14 109 -8 3 -22 20 -31 37 -21
40 -5 94 33 115 34 18 47 18 82 0z m292 -22 c14 -16 28 -37 32 -47 7 -19 -15
-62 -42 -82 -10 -7 -13 -25 -11 -57 4 -46 3 -47 -23 -47 -26 0 -28 3 -28 44 0
36 -6 50 -30 74 -36 36 -39 78 -9 116 28 36 76 36 111 -1z m-882 -12 c14 -27
13 -31 -9 -31 -24 0 -33 13 -25 34 8 21 21 20 34 -3z m170 -103 c23 -32 54
-134 44 -149 -2 -5 -12 -5 -20 -2 -12 4 -15 15 -11 38 3 21 -3 47 -19 81 -35
72 -33 84 6 32z m763 -29 c-17 -34 -23 -61 -19 -79 6 -34 -15 -58 -33 -36 -9
10 -8 15 2 19 8 3 14 21 15 43 1 21 11 51 22 66 11 15 20 32 20 38 0 6 4 9 9
6 4 -3 -3 -29 -16 -57z m-156 -66 c8 -35 8 -50 0 -55 -20 -12 -27 2 -27 53 0
62 13 63 27 2z m-435 -45 c-5 -19 -17 -24 -26 -10 -2 4 1 25 7 45 12 38 12 38
17 10 4 -15 4 -36 2 -45z m146 -109 c-16 -10 -28 -1 -23 16 16 49 17 50 26 20
6 -20 5 -32 -3 -36z"/>
<path d="M1137 2328 c-9 -7 -19 -25 -22 -40 -5 -21 -1 -33 19 -52 31 -31 55
-33 90 -5 50 39 24 109 -40 109 -17 0 -38 -6 -47 -12z m61 -51 c2 -12 -3 -17
-17 -17 -15 0 -21 6 -21 21 0 25 33 22 38 -4z"/>
<path d="M877 2132 c-25 -27 -22 -78 5 -96 48 -34 108 -7 108 48 0 19 -8 40
-18 49 -25 22 -75 21 -95 -1z m70 -38 c5 -15 -11 -33 -30 -34 -15 0 -20 32 -6
41 20 13 29 11 36 -7z"/>
<path d="M704 1922 c-57 -9 -70 -79 -23 -115 22 -15 33 -17 55 -10 33 11 58
54 49 83 -8 24 -52 47 -81 42z m34 -59 c5 -17 -26 -29 -40 -15 -6 6 -7 15 -3
22 9 14 37 9 43 -7z"/>
<path d="M652 1613 c-25 -10 -33 -52 -16 -84 13 -27 19 -30 55 -27 32 2 44 9
57 31 15 25 15 30 2 55 -12 20 -24 27 -50 29 -19 1 -41 -1 -48 -4z m54 -44 c8
-14 -18 -31 -30 -19 -9 9 0 30 14 30 5 0 12 -5 16 -11z"/>
<path d="M676 1299 c-48 -38 -22 -119 39 -119 31 0 75 41 75 70 0 26 -43 70
-68 70 -11 0 -31 -9 -46 -21z m64 -49 c0 -20 -17 -30 -37 -22 -16 5 -17 24 -2
39 16 16 39 5 39 -17z"/>
<path d="M881 1041 c-50 -38 -19 -121 45 -121 60 0 89 83 42 123 -26 22 -57
21 -87 -2z m69 -39 c0 -5 -6 -16 -12 -25 -16 -20 -44 -7 -35 17 6 16 47 23 47
8z"/>
<path d="M1135 815 c-14 -13 -25 -33 -25 -45 0 -11 11 -32 25 -45 13 -14 34
-25 45 -25 29 0 70 44 70 75 0 14 -9 34 -20 45 -27 27 -66 25 -95 -5z m62 -26
c14 -14 6 -39 -12 -39 -18 0 -28 17 -21 35 6 18 18 19 33 4z"/>
<path d="M1705 2326 c-44 -32 -8 -116 49 -116 51 0 85 79 50 114 -19 20 -74
21 -99 2z m68 -40 c5 -13 -10 -36 -24 -36 -10 0 -20 30 -13 41 8 14 31 11 37
-5z"/>
<path d="M2200 1923 c-51 -19 -66 -77 -29 -114 16 -16 28 -20 52 -15 38 8 54
22 62 57 10 42 -43 87 -85 72z m40 -58 c0 -9 -7 -18 -16 -22 -18 -7 -39 11
-30 26 11 17 46 13 46 -4z"/>
<path d="M2223 1620 c-43 -17 -55 -68 -23 -100 28 -28 74 -26 98 5 42 53 -11
120 -75 95z m42 -60 c0 -22 -29 -18 -33 3 -3 14 1 18 15 15 10 -2 18 -10 18
-18z"/>
<path d="M2178 1304 c-23 -12 -28 -21 -28 -54 0 -43 26 -70 68 -70 29 0 72 42
72 70 0 26 -43 70 -67 70 -10 -1 -30 -8 -45 -16z m62 -53 c0 -22 -29 -36 -43
-22 -15 15 0 41 23 41 13 0 20 -7 20 -19z"/>
<path d="M1965 1035 c-14 -13 -25 -33 -25 -45 0 -26 43 -70 68 -70 32 0 72 38
72 68 0 33 -8 45 -37 61 -33 17 -51 14 -78 -14z m71 -36 c10 -17 -23 -46 -37
-32 -7 7 -9 19 -6 27 7 18 33 21 43 5z"/>
<path d="M1704 814 c-30 -29 -27 -67 8 -96 27 -23 49 -23 82 3 32 25 35 70 6
99 -27 27 -66 25 -96 -6z m69 -50 c-8 -21 -43 -18 -43 5 0 11 6 21 13 24 17 6
37 -12 30 -29z"/>
<path d="M1152 1918 c-26 -26 -2 -75 31 -62 22 8 31 42 17 59 -15 18 -32 19
-48 3z"/>
<path d="M1742 1918 c-17 -17 -15 -43 4 -58 13 -11 18 -10 36 7 16 17 18 24 9
42 -13 24 -31 27 -49 9z"/>
<path d="M932 1648 c-31 -31 7 -81 43 -55 23 18 16 61 -10 65 -11 1 -26 -3
-33 -10z"/>
<path d="M1960 1645 c-14 -17 -7 -43 15 -51 19 -8 45 13 45 36 0 16 -18 30
-40 30 -4 0 -13 -7 -20 -15z"/>
<path d="M1160 1170 c-14 -27 4 -52 34 -48 31 4 30 62 -1 66 -14 2 -26 -4 -33
-18z"/>
<path d="M1441 1171 c-7 -13 -6 -23 3 -36 17 -24 50 -15 54 14 6 39 -39 56
-57 22z"/>
<path d="M1730 1175 c-17 -21 -2 -50 26 -50 14 0 19 7 19 30 0 34 -24 45 -45
20z"/>
</g>
</svg>
